# xmcd
#
# Track frame offsets: 
#        150
#        9661
#        18374
#        30847
#        36286
#        42903
#        52795
#        61196
#        69024
#        81752
#        91140
#        100200
#        108882
#        119070
#        126109
#        139247
#        146534
#        151134
#        163406
#        167897
#        185959
#        193213
#        202952
#        219066
#        228271
#        237627
#        248085
#        258397
#        269039
#        282511
#        289284
#        300526
#        309393
#
# Disc length: 4262 seconds
#
# Revision: 0
# Processed by: cddbd v1.5.2PL0 Copyright (c) Steve Scherf et al.
# Submitted via: ExactAudioCopy v0.99pb1
#
DISCID=d710a421
DTITLE=Н.Приезжева - Летит над миром музыка...
DYEAR=2003
DGENRE=Other
TTITLE0=Моя песенная книга
TTITLE1=Летит над миром музыка...
TTITLE2=Утренняя колыбельная
TTITLE3=Весенний сон
TTITLE4=Какой я бываю
TTITLE5=Старая любовь
TTITLE6=Женщина
TTITLE7=День рождения
TTITLE8=Когда бы знать
TTITLE9=Песнь матери
TTITLE10=Над прстреленной каской
TTITLE11=За гремучую доблесть
TTITLE12=Все была весна..
TTITLE13=Никому ничего не должна...
TTITLE14=Мужской романс
TTITLE15=Городской вальс
TTITLE16=Злой кот
TTITLE17=Старинный алма-атинский романс
TTITLE18=Птица
TTITLE19=Колыбельная моря
TTITLE20=Греховный роман
TTITLE21=Пудель
TTITLE22=Любовь
TTITLE23=Воспоминание
TTITLE24=Монолог вина
TTITLE25=На даче
TTITLE26=Вечерняя звезда
TTITLE27=Море
TTITLE28=Вечерние колокола
TTITLE29=Тепка
TTITLE30=Полет паденья
TTITLE31=Юность моя
TTITLE32=Мой бог
EXTD=
EXTT0=
EXTT1=
EXTT2=
EXTT3=
EXTT4=
EXTT5=
EXTT6=
EXTT7=
EXTT8=
EXTT9=
EXTT10=
EXTT11=
EXTT12=
EXTT13=
EXTT14=
EXTT15=
EXTT16=
EXTT17=
EXTT18=
EXTT19=
EXTT20=
EXTT21=
EXTT22=
EXTT23=
EXTT24=
EXTT25=
EXTT26=
EXTT27=
EXTT28=
EXTT29=
EXTT30=
EXTT31=
EXTT32=
PLAYORDER=
